<?xml version="1.0" encoding="UTF-8" standalone="no"?>
<!DOCTYPE svg PUBLIC "-//W3C//DTD SVG 1.1//EN" "http://www.w3.org/Graphics/SVG/1.1/DTD/svg11.dtd">
<svg version="1.1" xmlns="http://www.w3.org/2000/svg" xmlns:xlink="http://www.w3.org/1999/xlink" preserveAspectRatio="xMidYMid meet" viewBox="142.859375 75.64665878048307 347.764145291431 521.0390589993459" width="343.76" height="517.04"><defs><path d="M319.82 82.99C312.76 87.65 298.24 103.9 289.85 116.42C289.38 117.13 287.03 120.68 282.79 127.08C286.15 131.23 288.01 133.54 288.38 134C291.58 137.87 295.31 144.13 296.78 148.12C299.57 155.98 301.31 162.51 300.51 162.51C300.24 162.51 297.44 158.51 294.38 153.45C284.79 138.53 279.33 130.54 277.6 129.07C275.73 127.61 261.08 131.07 261.08 132.94C261.08 133.47 262.01 135.33 263.21 136.93C267.61 143.33 276.4 171.83 273.87 171.83C271.73 171.83 260.55 145.46 258.01 134.27C257.88 133.74 255.22 134.54 252.15 136.13C245.36 139.6 245.36 139.6 249.09 161.18C252.55 181.02 252.42 183.42 248.56 175.83C244.43 167.84 242.03 157.05 241.9 146.92C241.9 146.38 241.9 143.67 241.9 138.8C233.03 137.84 228.1 137.31 227.11 137.2C209.66 135.2 188.62 136 178.76 139.06C165.57 143.19 158.64 152.65 160.38 164.64C161.44 172.63 170.63 200.34 177.69 217.12C178.09 218.05 180.09 222.72 183.69 231.11L194.08 230.97L204.47 230.71C200.87 232.23 198.87 233.07 198.47 233.24C195.14 234.57 190.75 235.64 188.62 235.64C188.36 235.65 187.07 235.69 184.75 235.77C185.23 241.2 185.5 244.22 185.55 244.83C188.48 275.2 203.93 304.9 222.58 315.56C223.01 315.8 225.14 317 228.98 319.15C226.1 322.67 224.5 324.62 224.18 325.02C209.79 343 197.27 366.31 190.88 387.35C187.82 397.34 187.28 401.34 187.28 416.26C187.28 430.78 187.82 434.91 190.35 442.23C196.61 460.08 207.26 474.74 216.59 478.47C222.45 480.86 222.45 480.86 222.45 477.93C222.45 475.14 222.58 475.14 226.18 478.6C228.18 480.6 231.24 482.2 232.84 482.2C235.37 482.2 235.64 481.66 234.97 478.47C234.91 478.23 234.6 477.03 234.04 474.87C236.52 477.19 237.89 478.47 238.17 478.73C242.56 482.86 243.23 482.73 256.42 477.53C258.55 476.73 258.28 477.4 255.22 480.6C247.09 489.39 230.97 491.25 220.18 484.86C217.65 483.39 215.26 482.33 214.99 482.46C214.86 482.73 214.19 490.45 213.66 499.51C212.73 517.23 214.59 540.94 217.92 553.99C222.05 569.58 230.18 583.03 238.3 587.83C238.58 587.99 239.95 588.78 242.43 590.22C243.23 588.22 243.67 587.11 243.76 586.89C246.03 580.77 248.82 583.7 247.89 591.02C247.76 591.95 248.16 592.75 248.96 592.75C249.62 592.75 251.09 593.15 252.15 593.55C253.62 594.09 254.42 593.02 255.08 590.22C255.62 587.96 256.55 585.69 257.35 585.29C259.08 584.23 261.08 587.16 261.08 591.02C261.08 593.69 261.61 593.95 265.47 593.29C273.33 591.95 284.26 588.49 289.32 585.96C294.11 583.56 295.58 583.43 311.56 584.76C329.94 586.36 366.71 584.89 382.69 581.96C390.82 580.5 391.88 580.63 400.41 583.7C405.47 585.56 412.13 587.56 415.33 588.09C420.66 588.89 420.92 588.89 420.92 585.69C420.92 581.56 422.12 578.1 423.72 578.1C424.25 578.1 425.58 580.5 426.38 583.43C427.58 587.43 428.65 588.76 430.78 588.76C433.18 588.76 433.58 587.96 433.58 583.56C433.58 574.64 437.17 574.9 439.17 583.83C439.84 587.16 440.37 587.56 443.43 586.76C449.03 585.43 459.15 578.23 465.01 571.57C471.54 564.12 479.66 547.73 483.39 534.14C486.06 524.55 488.59 504.84 487.26 504.84C486.86 504.84 483.26 505.51 479.4 506.17C474.2 507.24 468.61 507.1 459.55 505.91C458.71 505.8 454.49 505.27 446.9 504.31C454.73 503.35 459.08 502.82 459.95 502.71C472.6 501.11 482.86 497.51 486.19 493.52C487.39 492.19 487.52 488.46 486.86 481.26C486.8 480.57 486.48 477.11 485.93 470.87C475.85 470.79 470.26 470.75 469.14 470.74C447.16 470.61 440.1 468.34 458.49 467.14C467.01 466.74 473.27 465.54 477.4 463.68C480.73 462.21 483.53 460.75 483.53 460.48C483.53 460.22 482.06 455.82 480.33 450.76C476.87 440.5 470.74 427.72 465.54 420.12C463.68 417.46 460.75 410.67 459.02 405.2C456.49 397.08 454.09 392.95 447.03 384.29C421.19 352.72 405.87 320.22 404.01 293.05C403.47 284.39 404.14 275.86 407.07 257.08C409.6 240.03 410.8 227.11 410.8 215.12C410.8 199.27 410.53 197.01 407.2 188.48C405.07 183.29 400.01 172.9 395.75 165.17C391.35 157.45 387.22 148.79 386.29 145.86C384.69 140.53 382.29 136.67 382.29 139.33C382.29 140.13 379.9 142.79 376.83 145.19C372.97 148.26 371.77 148.79 372.7 146.92C373.5 145.46 375.1 143.46 376.3 142.53C379.1 140.13 382.29 134 382.29 130.81C382.29 126.94 352.72 84.18 347.53 80.59C341.53 76.46 336.07 75.66 329.94 77.79C327.15 78.86 322.62 81.12 319.82 82.99ZM328.88 205.4C325.42 212.19 324.48 213.26 323.42 211.26C321.55 207.93 323.42 201 327.55 196.61C331.81 191.95 340.33 187.82 345.66 187.95C345.93 187.96 347.26 188 349.66 188.08L345.66 189.41C337.23 194.57 331.63 199.89 328.88 205.4ZM341.67 221.38C339.14 222.85 339.14 222.72 341.13 219.65C343.4 216.32 358.98 202.47 360.58 202.47C361.11 202.47 357.65 206.46 352.99 211.26C348.19 216.06 343.13 220.58 341.67 221.38ZM344.33 231.77C341.8 231.64 350.86 225.78 358.85 222.18C372.17 216.46 371.9 218.05 358.32 225.11C351.39 228.84 345.13 231.77 344.33 231.77ZM260.94 234.84C260.68 235.24 256.02 234.84 250.82 234.04C241.76 232.84 240.7 232.97 234.44 236.04C230.84 237.9 227.78 238.83 227.78 238.3C227.78 236.84 235.64 230.97 239.77 229.24C244.96 226.98 255.48 228.31 258.81 231.51C260.28 233.11 261.34 234.57 260.94 234.84ZM305.17 238.17C304.77 242.83 310.5 244.83 316.49 242.03C322.22 239.23 321.29 241.63 315.43 244.56C312.89 245.89 309.56 246.43 306.77 246.03C303.44 245.49 302.37 245.76 302.37 247.23C302.37 253.75 294.91 259.88 287.19 259.61C285.05 259.61 285.45 259.21 288.65 258.01C294.11 256.02 296.51 253.35 297.58 248.42C298.24 244.96 297.84 244.16 294.38 242.16C289.18 239.23 289.32 238.03 294.91 236.04C297.44 235.1 300.24 233.51 301.04 232.44C303.3 229.78 305.04 229.91 305.3 232.71C305.3 234.04 305.3 236.44 305.17 238.17ZM246.96 255.62C241.76 255.75 234.57 256.15 230.97 256.55C222.18 257.75 224.05 256.15 233.24 254.55C242.56 253.09 250.42 252.95 253.75 254.42C255.62 255.22 253.49 255.62 246.96 255.62ZM248.82 273.73C242.03 276.53 235.64 279.33 234.84 280.13C233.9 280.79 233.11 281.06 233.11 280.53C233.11 279.19 243.89 272.8 250.42 270.27C256.02 268 261.08 267.07 261.08 268.27C261.08 268.54 255.48 270.94 248.82 273.73ZM359.91 323.28C354.05 326.61 350.72 327.68 345.26 327.68C337.14 327.68 331.41 329.81 325.28 335.01C321.15 338.47 319.95 338.6 304.64 339.27C292.38 339.8 285.19 339.4 275.33 337.67C268.27 336.47 262.41 334.87 262.41 334.34C262.41 333.81 269.47 331.68 278.13 329.68C329.68 317.56 356.98 309.3 379.63 298.64C384.42 296.38 388.82 294.51 389.35 294.51C389.89 294.38 388.55 297.04 386.29 300.37C381.09 307.83 369.77 317.82 359.91 323.28ZM366.31 355.79C366.31 361.65 362.85 370.44 360.31 371.24C357.65 372.04 350.19 366.18 346.33 360.05C344.06 356.45 342.33 354.85 342.33 356.05C342.33 359.12 347.26 368.84 350.72 372.57C354.05 376.3 353.39 377.1 345.93 377.9C334.07 379.23 323.82 370.57 322.62 358.32C321.82 349.92 323.95 345 330.61 338.87C335.81 334.21 336.2 334.07 344.86 334.61C350.99 334.87 354.72 335.81 357.25 337.67C362.58 341.67 366.31 349.13 366.31 355.79ZM297.04 397.88C297.21 398.16 298.06 399.58 299.57 402.14C297.18 405.18 295.84 406.86 295.58 407.2C293.31 410 289.85 413.6 287.99 415.33C287.75 415.53 286.55 416.55 284.39 418.39C287.19 417.03 288.74 416.28 289.05 416.13C291.58 414.93 295.44 412.66 297.44 411.33C299.57 409.87 301.57 409.07 301.97 409.47C302.5 409.87 303.04 413.46 303.44 417.33C304.9 434.78 286.79 454.49 264.94 459.42C257.35 461.15 253.89 460.22 246.03 454.62C223.25 438.11 215.79 408.67 226.45 377.76C235.5 351.26 244.69 344.86 259.21 354.72C265.47 358.98 291.85 389.09 297.04 397.88ZM366.18 413.46C365.51 414.26 364.98 415.59 364.98 416.53C364.98 417.99 366.71 418.26 372.7 417.59C386.42 415.99 389.75 423.59 376.3 425.72C372.97 426.12 369.64 427.45 368.71 428.65C367.64 429.85 366.58 436.24 366.18 443.83C365.78 451.03 364.98 457.29 364.44 457.82C362.31 459.95 360.98 454.22 360.98 443.03C360.98 433.18 360.71 431.44 358.98 432.11C353.65 434.11 344.2 434.38 341.8 432.51C337.8 429.58 340.07 426.65 347.79 425.05C360.05 422.39 363.64 416.39 354.05 414.93C346.06 413.73 343.66 412.93 343.66 411.6C343.66 409.47 360.18 402.14 364.31 402.54C368.04 402.94 368.31 403.34 367.91 407.6C367.64 410.13 366.84 412.8 366.18 413.46ZM385.09 451.69C374.97 447.43 377.9 432.91 388.95 432.91C392.02 432.91 394.68 433.84 395.88 435.17C403.21 443.83 395.35 455.82 385.09 451.69ZM344.2 448.23C342.47 449.56 338.2 450.09 330.88 450.23C321.29 450.23 319.55 449.83 313.96 446.23C310.5 444.1 307.7 441.97 307.7 441.57C307.7 441.17 315.43 440.9 324.75 440.9C340.33 440.9 342.2 441.17 344.33 443.57C346.73 446.23 346.73 446.36 344.2 448.23ZM330.08 459.28C340.07 461.02 342.33 463.01 342.33 469.81C342.33 476.2 339.14 481.53 333.81 484.06C327.68 486.99 325.42 486.72 321.69 482.86C317.29 478.6 317.56 476.87 322.22 476.87C328.08 476.87 332.61 474.74 333.67 471.41C334.87 467.94 333.01 466.61 325.28 465.41C320.35 464.61 319.29 465.01 317.02 467.81C313.03 472.87 307.3 474.87 302.37 472.87C297.98 471.01 297.04 468.87 300.77 468.87C305.43 468.87 311.3 463.81 313.83 457.69C316.76 450.76 317.82 450.23 319.82 454.76C321.02 457.29 322.88 458.09 330.08 459.28ZM372.84 473.27C370.57 472.6 366.31 466.74 366.31 464.21C366.31 462.88 375.1 463.55 376.7 465.15C380.29 468.74 377.5 474.47 372.84 473.27ZM398.28 478.87C398.28 482.59 397.61 483.79 394.15 485.53C389.22 488.19 388.42 487.66 390.29 482.86C391.08 480.86 391.35 478.87 390.95 478.47C390.55 478.07 387.35 478.47 383.89 479.53C376.7 481.66 361.11 482.99 362.71 481.4C363.91 480.06 388.69 471.67 391.35 471.67C392.28 471.54 394.28 472.21 395.75 472.87C397.48 473.94 398.28 475.67 398.28 478.87ZM357.25 493.92C354.19 493.38 351.66 487.66 352.59 483.13C353.52 478.6 353.52 478.6 356.72 487.26C359.25 493.65 359.25 494.32 357.25 493.92ZM382.16 494.72C381.49 496.85 381.23 498.98 381.49 499.25C381.89 499.51 386.42 499.25 391.62 498.58C396.81 497.91 401.34 497.78 401.74 498.31C403.61 501.51 395.75 507.5 389.62 507.5C387.62 507.5 383.49 506.84 380.56 505.91C375.9 504.44 375.1 504.57 373.5 506.84C370.57 510.83 371.24 511.1 378.83 509.77C384.96 508.57 386.69 508.84 389.49 510.7C396.55 515.23 391.88 528.82 382.03 532.55C376.17 534.81 371.77 534.01 366.71 529.62C363.78 527.08 362.98 525.35 363.11 521.09C363.24 515.63 363.24 515.63 357.78 515.23C357.42 515.2 355.6 515.07 352.32 514.83C357.76 510.91 360.78 508.74 361.38 508.3C366.44 504.57 370.3 500.71 370.3 499.38C370.3 498.05 371.9 495.92 373.9 494.45C378.16 491.25 377.5 489.65 372.44 490.99C370.44 491.39 368.04 493.52 366.84 495.65C364.31 500.71 358.72 504.44 356.72 502.44C355.65 501.38 356.45 499.51 359.38 495.78C364.98 488.86 366.84 487.39 372.04 486.19C379.23 484.46 380.96 484.73 382.16 487.79C382.69 489.52 382.69 492.59 382.16 494.72ZM331.14 497.38C335.81 498.58 335.14 500.18 329.01 502.04C328.66 502.15 326.88 502.68 323.68 503.64L323.68 518.29C330.48 518.13 334.25 518.04 335.01 518.03C353.79 517.49 353.39 522.56 334.61 523.75C329.28 524.15 324.48 524.82 324.08 525.35C323.55 525.89 322.75 530.81 322.35 536.41C321.95 543.2 321.15 546.8 319.95 547.2C318.49 547.6 318.22 545.33 318.62 536.41C318.65 535.66 318.78 531.93 319.02 525.22C314.07 524.18 311.31 523.6 310.76 523.49C306.23 522.69 301.44 520.96 300.11 519.89C297.98 518.16 298.64 518.03 305.97 518.83C317.56 519.89 319.69 518.56 319.69 509.77C319.69 509.31 319.69 507 319.69 502.84C316.09 501.4 314.09 500.6 313.69 500.44C306.37 497.38 305.97 495.52 312.89 495.52C315.82 495.52 318.76 494.72 319.69 493.52C321.82 490.85 322.75 490.99 325.55 494.05C326.88 495.52 329.28 496.98 331.14 497.38ZM334.47 512.97C329.14 517.36 326.08 515.1 329.81 509.5C332.34 505.64 333.41 505.37 335.81 508.3C337.27 510.17 337.14 510.83 334.47 512.97ZM314.76 513.76C313.83 516.03 313.43 515.9 309.96 511.9C309.71 511.61 308.42 510.14 306.1 507.5C308.1 507.5 309.21 507.5 309.43 507.5C311.16 507.5 313.43 508.3 314.23 509.37C315.16 510.43 315.29 512.3 314.76 513.76ZM309.3 535.21C305.04 539.74 303.17 540.8 299.31 540.8C294.11 540.8 291.85 538.81 294.25 536.41C295.58 534.94 310.9 528.02 313.43 527.62C313.96 527.48 314.36 528.02 314.36 528.55C314.36 529.22 312.09 532.15 309.3 535.21ZM344.33 536.14C352.06 537.47 358.32 539.47 358.32 540.8C358.32 544.8 356.45 546.13 350.46 546.13C345 546.13 343.26 545.2 335.81 539.07C328.35 533.08 324.62 528.82 326.75 528.82C327.01 528.82 329.94 530.28 333.14 532.01C336.34 533.88 341.4 535.61 344.33 536.14ZM458.09 540.14C449.13 540.14 444.16 540.14 443.17 540.14C429.85 540.14 427.45 540.54 420.92 543.6C416.79 545.47 411.2 549.06 408.53 551.46C402.81 556.52 402.27 555.59 407.07 548.66C410.67 543.47 414.13 540.67 422.25 536.54C429.31 533.08 445.16 533.35 452.49 537.21C453.24 537.6 455.1 538.58 458.09 540.14ZM381.76 556.66C377.36 560.79 367.64 561.98 362.98 558.92C358.98 556.26 358.32 549.06 362.05 545.73C367.11 541.07 380.03 539.07 383.36 542.4C386.16 545.2 385.22 553.33 381.76 556.66ZM273.07 552.26C274.93 554.26 275.86 555.59 275.06 555.19C264.01 549.73 262.68 549.46 250.42 549.46C239.9 549.46 236.84 550 232.17 552.53C224.85 556.39 223.91 556.26 227.91 551.99C236.84 542.4 252.69 539.74 264.54 545.87C267.47 547.33 271.2 550.13 273.07 552.26Z" id="f1j6eVEoGL"></path><path d="M246.29 395.21C243.36 402.94 253.75 409.6 259.61 403.74C263.48 399.88 263.21 395.08 258.95 391.75C254.95 388.69 254.95 388.69 250.69 390.29C249.09 390.95 247.09 393.22 246.29 395.21ZM373.9 524.69C376.17 525.89 378.03 524.95 386.16 518.69C386.42 518.43 385.89 517.36 384.96 516.16C382.83 513.63 378.3 513.63 374.57 516.3C371.1 518.69 370.7 522.82 373.9 524.69ZM371.64 545.47C370.17 543.74 369.51 544 366.84 548C365.11 550.53 363.64 553.33 363.64 553.99C363.64 555.59 369.11 555.86 375.5 554.66C379.5 553.86 379.76 553.46 379.36 548.4C378.96 542.94 375.63 539.61 375.63 544.67C375.63 548 373.9 548.26 371.64 545.47ZM388.95 130.01C388.95 135.73 392.28 145.99 396.95 154.52C419.32 195.81 420.66 203.8 413.6 253.09C407.6 295.04 410 312.76 425.72 342.2C431.98 354.05 446.76 375.37 455.42 385.09C455.76 385.47 457.45 387.38 460.48 390.82C460.08 386.34 459.86 383.86 459.82 383.36C458.75 370.7 461.95 346.86 468.34 319.02C473.14 298.24 479.4 264.67 479.53 259.75C479.53 259.35 475.4 259.21 470.21 259.48C463.95 259.88 460.88 259.61 460.88 258.55C460.88 257.75 463.15 257.08 466.21 257.08C473 257.08 479 254.15 480.06 250.16C480.46 248.42 480.86 244.03 480.86 240.3C480.86 239.84 480.86 237.53 480.86 233.37C477.91 234.09 476.26 234.49 475.93 234.57C473.14 235.24 467.94 235.24 464.21 234.84C463.77 234.77 461.55 234.46 457.55 233.9C462.11 233.27 464.64 232.91 465.15 232.84C469.41 232.31 474.74 230.84 477 229.78C477.28 229.62 478.65 228.87 481.13 227.51C480.57 219.04 480.26 214.33 480.2 213.39C477.4 169.97 469.41 145.19 452.36 126.94C441.57 115.35 431.05 110.29 416.53 109.63C407.34 109.09 404.67 109.49 400.01 111.89C393.88 115.09 388.95 123.08 388.95 130.01ZM419.06 130.94C417.86 127.61 416.93 124.54 416.93 124.15C416.93 123.88 419.32 125.61 422.25 127.88C425.58 130.54 427.58 133.2 427.58 135.07C427.58 142.39 421.99 139.73 419.06 130.94ZM414.13 145.19C411.2 145.19 407.6 138.4 407.6 132.94C407.6 130.27 407.87 130.27 412.26 134.54C414.93 137.07 416.93 140.4 416.93 142.13C416.93 144.39 416.13 145.19 414.13 145.19ZM170.37 346.99C171.97 354.05 173.16 362.05 173.16 364.98C173.16 370.7 171.3 372.57 159.04 378.7C150.12 383.23 143.86 388.55 143.86 391.75C143.86 394.95 147.46 397.21 160.91 402.81C166.77 405.34 173.43 408.53 175.56 410.13C180.89 413.86 181.16 413.73 181.16 408.4C181.16 396.01 189.95 368.71 199.27 352.06C199.57 351.51 201.08 348.81 203.8 343.93C197.25 338.66 193.61 335.73 192.88 335.14C183.29 327.55 181.16 326.35 176.36 326.35C171.43 326.35 170.63 326.88 169.17 330.34C167.84 333.54 167.97 336.34 170.37 346.99Z" id="dHd4XsFUw"></path></defs><g><g><use xlink:href="#f1j6eVEoGL" opacity="1" fill="#000000" fill-opacity="1"></use><g><use xlink:href="#f1j6eVEoGL" opacity="1" fill-opacity="0" stroke="#000000" stroke-width="1" stroke-opacity="0"></use></g></g><g><use xlink:href="#dHd4XsFUw" opacity="1" fill="#000000" fill-opacity="1"></use><g><use xlink:href="#dHd4XsFUw" opacity="1" fill-opacity="0" stroke="#000000" stroke-width="1" stroke-opacity="0"></use></g></g></g></svg>